C:\Users\r0593348\3dpredictsim\Results\Batchsim_tmt_linear\Pog_s1_tmt_aCst_d00_k500_ig24_act_GRF.mot
nRows=30
nColumns=19

name C:\Users\r0593348\3dpredictsim\Results\Batchsim_tmt_linear\Pog_s1_tmt_aCst_d00_k500_ig24_act_GRF.mot
datacolumns 19
datarows 30
range 0.0000000000 0.4034079301
endheader
time 	ground_force_vx	ground_force_vy	ground_force_vz	ground_force_px	ground_force_py	ground_force_pz	1_ground_force_vx	1_ground_force_vy	1_ground_force_vz	1_ground_force_px	1_ground_force_py	1_ground_force_pz	ground_torque_x	ground_torque_y	ground_torque_z	1_ground_torque_x	1_ground_torque_y	1_ground_torque_z
        0.0000000000	      -43.0598732188	      137.2050959385	       53.3424170314	        0.2236037159	        0.0000000000	        0.0489690626	       58.2092371245	      279.4941514243	      -12.7486402513	       -0.4134077315	        0.0000000000	       -0.0279389338	        0.0000000000	        0.0000000000	        0.0000000000	        0.0000000000	        0.0000000000	        0.0000000000	
        0.0139106183	      -60.0095573653	      443.8803375204	       -2.7192672046	        0.2253699927	        0.0000000000	        0.0471271092	       41.3365256852	      227.3791087017	      -10.0933969899	       -0.4060635950	        0.0000000000	       -0.0246750472	        0.0000000000	        0.0000000000	        0.0000000000	        0.0000000000	        0.0000000000	        0.0000000000	
        0.0278212366	      -98.5017315210	      669.1245429520	      -16.0695857120	        0.2275877141	        0.0000000000	        0.0471192372	       42.0225777365	      184.5980330769	       -6.8112542009	       -0.4056450361	        0.0000000000	       -0.0245751204	        0.0000000000	        0.0000000000	        0.0000000000	        0.0000000000	        0.0000000000	        0.0000000000	
        0.0417318548	     -156.2802148325	      836.2697364821	      -18.3625632731	        0.2363134368	        0.0000000000	        0.0491687796	       30.9153520220	      124.3775841491	      -13.5692467720	       -0.4054444321	        0.0000000000	       -0.0252894677	        0.0000000000	        0.0000000000	        0.0000000000	        0.0000000000	        0.0000000000	        0.0000000000	
        0.0556424731	     -180.6955934508	      913.8488575825	      -18.3562063432	        0.2450938560	        0.0000000000	        0.0512176051	        9.9659427948	       45.1902746854	      -10.7283198494	       -0.4055766952	        0.0000000000	       -0.0261094980	        0.0000000000	        0.0000000000	        0.0000000000	        0.0000000000	        0.0000000000	        0.0000000000	
        0.0695530914	     -173.3801320110	      896.8868491552	      -14.9078707264	        0.2507116786	        0.0000000000	        0.0523445219	        0.1875724416	       -0.1945968319	        0.0374718747	        0.0000000000	        0.0000000000	        0.0000000000	        0.0000000000	        0.0000000000	        0.0000000000	        0.0000000000	        0.0000000000	        0.0000000000	
        0.0834637097	     -147.0975311855	      841.6598920227	      -16.0953537380	        0.2547848315	        0.0000000000	        0.0529173218	        0.3310151655	       -0.2536488527	        0.0075997465	        0.0000000000	        0.0000000000	        0.0000000000	        0.0000000000	        0.0000000000	        0.0000000000	        0.0000000000	        0.0000000000	        0.0000000000	
        0.0973743280	     -125.8450505027	      777.5968333305	      -16.6311695877	        0.2585626758	        0.0000000000	        0.0532146735	      -11.4853716360	        7.4863471443	        0.1206846571	        0.0000000000	        0.0000000000	        0.0000000000	        0.0000000000	        0.0000000000	        0.0000000000	        0.0000000000	        0.0000000000	        0.0000000000	
        0.1112849462	     -110.6966753030	      735.0115880471	      -17.1588346636	        0.2625900994	        0.0000000000	        0.0532271677	      -13.7850521637	        7.8969576601	        0.4879587960	        0.0000000000	        0.0000000000	        0.0000000000	        0.0000000000	        0.0000000000	        0.0000000000	        0.0000000000	        0.0000000000	        0.0000000000	
        0.1251955645	      -98.2067010905	      705.5346503046	      -17.1896037452	        0.2671395494	        0.0000000000	        0.0530771144	      -14.7510301963	        7.6829193261	        0.7816676826	        0.0000000000	        0.0000000000	        0.0000000000	        0.0000000000	        0.0000000000	        0.0000000000	        0.0000000000	        0.0000000000	        0.0000000000	
        0.1391061828	      -88.7193433936	      687.1474528533	      -18.2499521668	        0.2728148636	        0.0000000000	        0.0525899290	      -15.7563866729	        7.7502457330	        0.9569369165	        0.0000000000	        0.0000000000	        0.0000000000	        0.0000000000	        0.0000000000	        0.0000000000	        0.0000000000	        0.0000000000	        0.0000000000	
        0.1530168011	      -78.7189593826	      669.5556090812	      -19.4367974922	        0.2786352063	        0.0000000000	        0.0521277458	      -15.0975542372	        7.2174150517	        0.9188701070	        0.0000000000	        0.0000000000	        0.0000000000	        0.0000000000	        0.0000000000	        0.0000000000	        0.0000000000	        0.0000000000	        0.0000000000	
        0.1669274194	      -68.5585932261	      650.3070614336	      -20.2650822208	        0.2841441825	        0.0000000000	        0.0518200953	      -12.8951408146	        6.0173763164	        0.8136028148	        0.0000000000	        0.0000000000	        0.0000000000	        0.0000000000	        0.0000000000	        0.0000000000	        0.0000000000	        0.0000000000	        0.0000000000	
        0.1808380376	      -58.9955511813	      632.2543800944	      -20.3761503438	        0.2895421297	        0.0000000000	        0.0516173469	       -9.7986477846	        4.4873405387	        0.6339140390	        0.0000000000	        0.0000000000	        0.0000000000	        0.0000000000	        0.0000000000	        0.0000000000	        0.0000000000	        0.0000000000	        0.0000000000	
        0.1947486559	      -50.6551953960	      616.4969535896	      -20.1604752498	        0.2950056606	        0.0000000000	        0.0514476602	       -6.9790609502	        3.1517909434	        0.4531706300	        0.0000000000	        0.0000000000	        0.0000000000	        0.0000000000	        0.0000000000	        0.0000000000	        0.0000000000	        0.0000000000	        0.0000000000	
        0.2086592742	      -44.1797638404	      604.4672718381	      -19.6944979254	        0.3007473808	        0.0000000000	        0.0512476551	       -4.9105993101	        2.1945249255	        0.3134512742	        0.0000000000	        0.0000000000	        0.0000000000	        0.0000000000	        0.0000000000	        0.0000000000	        0.0000000000	        0.0000000000	        0.0000000000	
        0.2225698925	      -39.0729983302	      597.4682180845	      -19.1430936490	        0.3072187048	        0.0000000000	        0.0509330676	       -3.3520022024	        1.4837458789	        0.2088030997	        0.0000000000	        0.0000000000	        0.0000000000	        0.0000000000	        0.0000000000	        0.0000000000	        0.0000000000	        0.0000000000	        0.0000000000	
        0.2364805108	      -34.4389042403	      593.4033461428	      -18.2029411079	        0.3144262682	        0.0000000000	        0.0504753617	       -2.2325990387	        0.9776961955	        0.1344232673	        0.0000000000	        0.0000000000	        0.0000000000	        0.0000000000	        0.0000000000	        0.0000000000	        0.0000000000	        0.0000000000	        0.0000000000	
        0.2503911290	      -30.4581924966	      590.8259968614	      -17.2986781603	        0.3220878414	        0.0000000000	        0.0498874063	       -1.5526399508	        0.6710004482	        0.0896108502	        0.0000000000	        0.0000000000	        0.0000000000	        0.0000000000	        0.0000000000	        0.0000000000	        0.0000000000	        0.0000000000	        0.0000000000	
        0.2643017473	      -27.0753866328	      589.2648641663	      -16.9038337149	        0.3299453606	        0.0000000000	        0.0491984923	       -1.1674723528	        0.4970896968	        0.0645001717	        0.0000000000	        0.0000000000	        0.0000000000	        0.0000000000	        0.0000000000	        0.0000000000	        0.0000000000	        0.0000000000	        0.0000000000	
        0.2782123656	      -23.9643634668	      587.8223093052	      -16.6600641705	        0.3377479538	        0.0000000000	        0.0484623766	       -0.9562406300	        0.4008992862	        0.0512111032	        0.0000000000	        0.0000000000	        0.0000000000	        0.0000000000	        0.0000000000	        0.0000000000	        0.0000000000	        0.0000000000	        0.0000000000	
        0.2921229839	      -20.6982632372	      585.0293684336	      -17.0523533842	        0.3453475122	        0.0000000000	        0.0477132918	       -0.8440479676	        0.3484720461	        0.0443989069	        0.0000000000	        0.0000000000	        0.0000000000	        0.0000000000	        0.0000000000	        0.0000000000	        0.0000000000	        0.0000000000	        0.0000000000	
        0.3060336022	      -17.0502151713	      579.6964216570	      -17.2899098189	        0.3527334004	        0.0000000000	        0.0469655060	       -0.7965350034	        0.3239312631	        0.0414326597	        0.0000000000	        0.0000000000	        0.0000000000	        0.0000000000	        0.0000000000	        0.0000000000	        0.0000000000	        0.0000000000	        0.0000000000	
        0.3199442204	      -12.9616085646	      572.3364543403	      -17.1096665675	        0.3600174023	        0.0000000000	        0.0461971651	       -0.8127702263	        0.3255186325	        0.0413470213	        0.0000000000	        0.0000000000	        0.0000000000	        0.0000000000	        0.0000000000	        0.0000000000	        0.0000000000	        0.0000000000	        0.0000000000	
        0.3338548387	       -8.7590043061	      563.4139947540	      -16.2333738887	        0.3671715021	        0.0000000000	        0.0454058036	       -0.9136924692	        0.3602701639	        0.0442428127	        0.0000000000	        0.0000000000	        0.0000000000	        0.0000000000	        0.0000000000	        0.0000000000	        0.0000000000	        0.0000000000	        0.0000000000	
        0.3477654570	       -4.7646150284	      554.4734551196	      -15.0571055747	        0.3741222169	        0.0000000000	        0.0445915120	       -1.1039923735	        0.4289545969	        0.0483496492	        0.0000000000	        0.0000000000	        0.0000000000	        0.0000000000	        0.0000000000	        0.0000000000	        0.0000000000	        0.0000000000	        0.0000000000	
        0.3616760753	       -1.0007600726	      548.0913514100	      -14.1843929538	        0.3808517079	        0.0000000000	        0.0437437778	       -1.3674095661	        0.5244594064	        0.0508817317	        0.0000000000	        0.0000000000	        0.0000000000	        0.0000000000	        0.0000000000	        0.0000000000	        0.0000000000	        0.0000000000	        0.0000000000	
        0.3755866936	        2.8151546162	      544.8289754355	      -13.6533805273	        0.3871580560	        0.0000000000	        0.0428939781	       -1.6329838914	        0.6195186198	        0.0475363694	        0.0000000000	        0.0000000000	        0.0000000000	        0.0000000000	        0.0000000000	        0.0000000000	        0.0000000000	        0.0000000000	        0.0000000000	
        0.3894973119	        6.8455161649	      545.8663258373	      -13.5294103484	        0.3927398881	        0.0000000000	        0.0420824571	       -1.7508709102	        0.6584733954	        0.0354973498	        0.0000000000	        0.0000000000	        0.0000000000	        0.0000000000	        0.0000000000	        0.0000000000	        0.0000000000	        0.0000000000	        0.0000000000	
        0.4034079301	       10.5234030826	      553.8445387239	      -13.6423270623	        0.3971493275	        0.0000000000	        0.0413620609	       -1.5140577278	        0.5658915824	        0.0181137070	        0.0000000000	        0.0000000000	        0.0000000000	        0.0000000000	        0.0000000000	        0.0000000000	        0.0000000000	        0.0000000000	        0.0000000000	
